# xmcd
#
# Track frame offsets: 
#        150
#        43672
#        74275
#        92460
#        119995
#        176365
#        230507
#        247832
#
# Disc length: 3703 seconds
#
# Revision: 0
# Processed by: cddbd v1.5.2PL0 Copyright (c) Steve Scherf et al.
# Submitted via: ExactAudioCopy v1.0b1
#
DISCID=650e7508
DTITLE=Jochum - Beethoven Symphony No.1 and 2 ,CD1
DYEAR=2005
DGENRE=Classical
TTITLE0=Sym No.1 in C, Op.21: 1. Adagio Molto - Allegro Con Brio
TTITLE1=Sym No.1 in C, Op.21: 2. Andante Cantabile Con Moto
TTITLE2=Sym No.1 in C, Op.21: 3. Menuetto. Allegro Molto E Vivace - Tr
TTITLE2=io
TTITLE3=Sym No.1 in C, Op.21: 4. Finale. Adagio - Allegro Molto E Viva
TTITLE3=ce
TTITLE4=Sym No.2 in D, Op.36: 1. Adagio - Allegro Con Brio
TTITLE5=Sym No.2 in D, Op.36: 2. Larghetto
TTITLE6=Sym No.2 in D, Op.36: 3. Scherzo. Allegro - Trio
TTITLE7=Sym No.2 in D, Op.36: 4. Allegro Molto
EXTD=
EXTT0=
EXTT1=
EXTT2=
EXTT3=
EXTT4=
EXTT5=
EXTT6=
EXTT7=
PLAYORDER=
